<?xml version="1.0" encoding="iso-8859-1"?>
<!-- Generator: Adobe Illustrator 19.0.0, SVG Export Plug-In . SVG Version: 6.00 Build 0)  -->
<svg version="1.1" id="Layer_1" xmlns="http://www.w3.org/2000/svg" xmlns:xlink="http://www.w3.org/1999/xlink" x="0px" y="0px"
	 viewBox="0 0 512 512" style="enable-background:new 0 0 512 512;" xml:space="preserve">
<g>
	<g>
		<path d="M475.045,242.346l-39.594-94.572h55.728v-83.49H298.728V41.745c0-23.018-18.727-41.745-41.745-41.745
			c-23.019,0-41.746,18.727-41.746,41.745v22.538H22.787v83.49h53.762l-39.594,94.572H0v39.442c0,41.449,33.721,75.17,75.169,75.17
			h48.469c41.449,0,75.17-33.722,75.17-75.17v-39.442h-36.955l-39.594-94.572h92.979v231.596h-64.377v51.107h-7.641
			c-29.224,0-52.999,23.775-52.999,52.998V512h333.525v-28.525c0-29.223-23.775-52.998-52.999-52.998h-7.641v-51.107h-64.379
			V147.774h91.013l-39.594,94.572h-36.955v39.442c0,41.449,33.722,75.17,75.17,75.17h48.469c41.449,0,75.169-33.722,75.169-75.17
			v-39.442H475.045z M245.655,41.745c0-6.246,5.082-11.327,11.328-11.327c6.246,0,11.327,5.082,11.327,11.327v22.538h-22.656V41.745
			z M168.39,272.764v9.025c0,24.676-20.076,44.753-44.753,44.753H75.169c-24.676,0-44.752-20.076-44.752-44.753v-9.025H168.39z
			 M128.878,242.346H69.929l29.474-70.401L128.878,242.346z M370.745,460.893c11.815,0,21.539,9.119,22.504,20.689H120.716
			c0.964-11.57,10.689-20.689,22.504-20.689h7.641h212.244H370.745z M332.687,409.786v20.69h-151.41v-20.69h33.96v0.001h83.49
			v-0.001H332.687z M245.655,379.369V147.774h22.656v231.596H245.655z M298.728,117.356h-83.49H53.204V94.701h162.035h83.49h162.035
			v22.656H298.728z M412.596,171.946l29.474,70.401h-58.949L412.596,171.946z M436.831,326.542h-48.469
			c-24.677,0-44.753-20.076-44.753-44.753v-9.025h137.973v9.025h0.001C481.583,306.465,461.507,326.542,436.831,326.542z " fill="white"/>
	</g>
</g>
<g>
</g>
<g>
</g>
<g>
</g>
<g>
</g>
<g>
</g>
<g>
</g>
<g>
</g>
<g>
</g>
<g>
</g>
<g>
</g>
<g>
</g>
<g>
</g>
<g>
</g>
<g>
</g>
<g>
</g>
</svg>
