<svg height="512" viewBox="0 0 52 60" width="512" xmlns="http://www.w3.org/2000/svg"><g id="Page-1" fill="none" fill-rule="evenodd"><g id="045---Rating" fill="white" fill-rule="nonzero"><path id="Shape" d="m47 10h-9.1807c-.9693425-5.77223655-5.9662376-9.99996284-11.8193-9.99996284s-10.8499575 4.22772629-11.8193 9.99996284h-9.1807c-2.76007596.0032511-4.99674886 2.239924-5 5v40c.00325114 2.760076 2.23992404 4.9967489 5 5h42c2.760076-.0032511 4.9967489-2.239924 5-5v-40c-.0032511-2.760076-2.239924-4.9967489-5-5zm-21-8c3.6610744-.00559156 7.0316138 1.99289473 8.7831738 5.20778734 1.75156 3.21489256 1.6032125 7.13056326-.3865738 10.20371266-1.2131529-1.3444304-2.7711385-2.3311788-4.5051-2.8533 1.9135519-1.6305698 2.6076417-4.2812124 1.7388273-6.64036481s-3.1162791-3.9264971-5.6303273-3.9264971-4.7615129 1.56734469-5.6303273 3.9264971-.1747246 5.00979501 1.7388273 6.64036481c-1.7339615.5221212-3.2919471 1.5088696-4.5051 2.8533-1.9897863-3.0731494-2.1381338-6.9888201-.3865738-10.20371266 1.75156-3.21489261 5.1220994-5.2133789 8.7831738-5.20778734zm-4 8c0-2.209139 1.790861-4 4-4s4 1.790861 4 4-1.790861 4-4 4c-2.2081794-.0023149-3.9976851-1.7918206-4-4zm11.1209 9.0092c-1.8755624 1.9129296-4.4419013 2.9907998-7.1209 2.9907998s-5.2453376-1.0778702-7.1209-2.9907998c1.7751741-2.0577036 4.4080743-3.1703331 7.1209-3.0092 2.7128257-.1611331 5.3457259.9514964 7.1209 3.0092zm16.8791 35.9908c-.0018187 1.6561003-1.3438997 2.9981813-3 3h-42c-1.65610033-.0018187-2.99818129-1.3438997-3-3v-40c.00181871-1.6561003 1.34389967-2.9981813 3-3h9c-.0024363 2.7757618.9620494 5.465693 2.7277 7.6075l.0131.0176c2.2766919 2.769795 5.6738004 4.3749037 9.2592 4.3749037s6.9825081-1.6051087 9.2592-4.3749037l.0131-.0176c1.7656506-2.141807 2.7301363-4.8317382 2.7277-7.6075h9c1.6561003.0018187 2.9981813 1.3438997 3 3z"/><path id="Shape" d="m22.4316 33.7188-.5087 3.12c-.0616038.3779282.0980135.7578514.4110482.9783826.3130347.2205313.7245162.2429439 1.0596518.0577174l2.6064-1.4403 2.6064 1.44c.3351356.1852265.7466171.1628139 1.0596518-.0577174.3130347-.2205312.472652-.6004544.4110482-.9783826l-.5087-3.12 2.1474-2.2012c.2615317-.268315.3511257-.6603195.2321205-1.0156075s-.4266393-.6142392-.7970205-.6708925l-2.9273-.4473-1.3183-2.8086c-.1647146-.3510492-.5175288-.5752272-.9053-.5752272s-.7405854.224178-.9053.5752272l-1.3183 2.8086-2.9273.4473c-.3703812.0566533-.6780153.3156045-.7970205.6708925s-.0294112.7472925.2321205 1.0156075zm2.1744-2.4388c.3297569-.0501449.6127478-.2615252.7544-.5635l.6396-1.363.64 1.3633c.1416522.3019748.4246431.5133551.7544.5635l1.5308.2343-1.1406 1.169c-.2216971.2271681-.322284.5461511-.271.8594l.2588 1.5859-1.2881-.7119c-.3010717-.1666737-.6667283-.1666737-.9678 0l-1.2881.7119.2588-1.5859c.051284-.3132489-.0493029-.6322319-.271-.8594l-1.1406-1.169z"/><path id="Shape" d="m8.4316 33.7188-.5087 3.12c-.06160376.3779282.09801349.7578514.41104821.9783826.31303471.2205313.72451617.2429439 1.05965179.0577174l2.6064-1.4403 2.6064 1.44c.3351356.1852265.7466171.1628139 1.0596518-.0577174.3130347-.2205312.472652-.6004544.4110482-.9783826l-.5087-3.12 2.1474-2.2012c.2615317-.268315.3511257-.6603195.2321205-1.0156075s-.4266393-.6142392-.7970205-.6708925l-2.9273-.4473-1.3183-2.8086c-.1647146-.3510492-.5175288-.5752272-.9053-.5752272s-.7405854.224178-.9053.5752272l-1.3183 2.8086-2.9273.4473c-.37038116.0566533-.67801534.3156045-.79702049.6708925-.11900516.355288-.02941123.7472925.23212049 1.0156075zm2.1744-2.4388c.3297569-.0501449.6127478-.2615252.7544-.5635l.6396-1.363.64 1.3633c.1416522.3019748.4246431.5133551.7544.5635l1.5308.2343-1.1406 1.169c-.2216971.2271681-.322284.5461511-.271.8594l.2588 1.5859-1.2881-.7119c-.3010717-.1666737-.6667283-.1666737-.9678 0l-1.2881.7119.2588-1.5859c.051284-.3132489-.0493029-.6322319-.271-.8594l-1.1406-1.169z"/><path id="Shape" d="m36.4316 33.7188-.5087 3.12c-.0616038.3779282.0980135.7578514.4110482.9783826.3130347.2205313.7245162.2429439 1.0596518.0577174l2.6064-1.4403 2.606 1.44c.3351607.1854603.7468134.1631684 1.0599868-.0574005s.4728318-.6006532.4111132-.9786995l-.5087-3.12 2.1474-2.2012c.2615131-.268246.3511607-.6601608.2322701-1.0154213-.1188906-.3552606-.4263756-.6142719-.7966701-.6710787l-2.9278-.4473-1.3183-2.8086c-.1647146-.3510492-.5175288-.5752272-.9053-.5752272s-.7405854.224178-.9053.5752272l-1.3183 2.8086-2.9273.4473c-.3703812.0566533-.6780153.3156045-.7970205.6708925s-.0294112.7472925.2321205 1.0156075zm2.1744-2.4388c.3297569-.0501449.6127478-.2615252.7544-.5635l.6396-1.363.64 1.3633c.1416522.3019748.4246431.5133551.7544.5635l1.5308.2343-1.1406 1.169c-.2216971.2271681-.322284.5461511-.271.8594l.2583 1.5859-1.2876-.7119c-.301243-.1660092-.666557-.1660092-.9678 0l-1.2881.7119.2588-1.5859c.051284-.3132489-.0493029-.6322319-.271-.8594l-1.1406-1.169z"/><path id="Shape" d="m7 43h12c.5522847 0 1-.4477153 1-1s-.4477153-1-1-1h-12c-.55228475 0-1 .4477153-1 1s.44771525 1 1 1z"/><path id="Shape" d="m45 41h-22c-.5522847 0-1 .4477153-1 1s.4477153 1 1 1h22c.5522847 0 1-.4477153 1-1s-.4477153-1-1-1z"/><path id="Shape" d="m45 45h-38c-.55228475 0-1 .4477153-1 1s.44771525 1 1 1h38c.5522847 0 1-.4477153 1-1s-.4477153-1-1-1z"/><path id="Shape" d="m7 51h24c.5522847 0 1-.4477153 1-1s-.4477153-1-1-1h-24c-.55228475 0-1 .4477153-1 1s.44771525 1 1 1z"/><path id="Shape" d="m45 49h-10c-.5522847 0-1 .4477153-1 1s.4477153 1 1 1h10c.5522847 0 1-.4477153 1-1s-.4477153-1-1-1z"/><path id="Shape" d="m45 53h-38c-.55228475 0-1 .4477153-1 1s.44771525 1 1 1h38c.5522847 0 1-.4477153 1-1s-.4477153-1-1-1z"/></g></g></svg>