<svg height="512pt" viewBox="0 0 512 512" width="512pt" xmlns="http://www.w3.org/2000/svg"><path d="m215.953125 59.996094c-85.996094 0-155.957031 69.960937-155.957031 155.957031s69.960937 155.957031 155.957031 155.957031 155.957031-69.960937 155.957031-155.957031-69.960937-155.957031-155.957031-155.957031zm-54.785156 269.367187v-36.425781c0-30.207031 24.578125-54.785156 54.785156-54.785156s54.785156 24.578125 54.785156 54.785156v36.421875c-16.574219 8.039063-35.160156 12.554687-54.785156 12.554687-19.621094 0-38.210937-4.511718-54.785156-12.550781zm25.726562-150.265625c0-16.023437 13.035157-29.058594 29.058594-29.058594s29.058594 13.035157 29.058594 29.058594c0 16.019532-13.035157 29.058594-29.058594 29.058594s-29.058594-13.039062-29.058594-29.058594zm113.839844 129.929688v-16.089844c0-31.164062-16.910156-58.433594-42.027344-73.167969 10.089844-10.597656 16.300781-24.917969 16.300781-40.671875 0-32.5625-26.492187-59.058594-59.054687-59.058594s-59.054687 26.492188-59.054687 59.058594c0 15.753906 6.210937 30.074219 16.300781 40.671875-25.117188 14.734375-42.027344 42.003907-42.027344 73.167969v16.089844c-25.285156-23.054688-41.179687-56.242188-41.179687-93.074219 0-69.453125 56.507812-125.960937 125.960937-125.960937s125.960937 56.507812 125.960937 125.960937c0 36.832031-15.894531 70.019531-41.179687 93.074219zm0 0" fill="white" /><path d="m495.882812 417.992188-93.375-93.371094c18.675782-31.941406 29.398438-69.074219 29.398438-108.667969 0-119.078125-96.875-215.953125-215.953125-215.953125s-215.953125 96.875-215.953125 215.953125 96.875 215.953125 215.953125 215.953125c39.628906 0 76.792969-10.738281 108.753906-29.445312l93.355469 93.355468c10.390625 10.390625 24.210938 16.117188 38.910156 16.117188 14.699219 0 28.515625-5.726563 38.910156-16.117188 10.394532-10.394531 16.117188-24.214844 16.117188-38.914062 0-14.695313-5.722656-28.515625-16.117188-38.910156zm-465.886718-202.039063c0-102.535156 83.421875-185.957031 185.957031-185.957031s185.957031 83.421875 185.957031 185.957031-83.421875 185.957031-185.957031 185.957031-185.957031-83.421875-185.957031-185.957031zm444.675781 258.648437c-9.761719 9.761719-25.640625 9.761719-35.398437 0l-89.375-89.375c13.113281-10.398437 24.996093-22.285156 35.390624-35.40625l89.382813 89.382813c9.757813 9.761719 9.757813 25.640625 0 35.398437zm0 0" fill="white"/></svg>